<svg aria-hidden="true" style="position: absolute; width: 0; height: 0; overflow: hidden;" version="1.1" xmlns="http://www.w3.org/2000/svg" xmlns:xlink="http://www.w3.org/1999/xlink">
<defs>
<symbol id="dissi" viewBox="0 0 91 32">
<path  d="M0.796 0.035c-0.202 0-0.385 0.077-0.549 0.231s-0.246 0.337-0.246 0.55v6.427c0 0.19 0.082 0.361 0.246 0.515s0.347 0.231 0.549 0.231h3.296c0.227 0 0.423-0.071 0.587-0.213s0.246-0.319 0.246-0.533v-2.166c0-0.118 0.044-0.219 0.133-0.302s0.195-0.124 0.322-0.124h3.069c1.515 0 2.904 0.349 4.167 1.048 1.262 0.699 2.266 1.64 3.011 2.823s1.118 2.486 1.118 3.906-0.373 2.723-1.118 3.906c-0.745 1.184-1.749 2.125-3.011 2.823-1.263 0.699-2.652 1.048-4.167 1.048h-3.069c-0.227 0-0.423 0.071-0.587 0.213s-0.246 0.331-0.246 0.568v3.090c0 0.213 0.082 0.39 0.246 0.533s0.36 0.213 0.587 0.213h3.069c2.399 0 4.608-0.556 6.629-1.669 2.020-1.113 3.624-2.616 4.811-4.51s1.781-3.965 1.781-6.214c0-2.249-0.594-4.32-1.781-6.214s-2.791-3.397-4.811-4.51c-2.021-1.113-4.231-1.669-6.629-1.669h-7.652z"></path>
<path  d="M26.461 24.698c-0.139-0.13-0.208-0.278-0.208-0.444v-23.579c0-0.189 0.076-0.349 0.227-0.479s0.316-0.195 0.493-0.195h3.939c0.176 0 0.334 0.065 0.474 0.195s0.208 0.29 0.208 0.479v23.579c0 0.166-0.063 0.314-0.189 0.444s-0.29 0.195-0.492 0.195h-3.939c-0.203 0-0.373-0.065-0.512-0.195zM41.575 23.899c-2.033-0.592-3.466-1.243-4.3-1.953-0.152-0.142-0.227-0.32-0.227-0.533 0-0.236 0.101-0.533 0.303-0.888s0.543-0.852 1.023-1.491c0.176-0.237 0.391-0.355 0.644-0.355 0.076 0 0.189 0.024 0.341 0.071 1.793 0.852 3.277 1.391 4.451 1.616s2.418 0.337 3.731 0.337c1.288 0 2.304-0.207 3.050-0.621s1.117-0.964 1.117-1.651c0-0.568-0.265-1.172-0.795-1.811-0.328-0.402-0.852-0.74-1.572-1.012s-1.623-0.55-2.708-0.834c-0.127-0.023-0.455-0.107-0.985-0.249-2.045-0.568-3.637-1.248-4.773-2.042s-1.894-1.793-2.273-3.001c-0.278-0.828-0.416-1.585-0.416-2.272 0-1.208 0.341-2.314 1.022-3.321 0.682-1.006 1.667-1.84 2.955-2.503s2.803-1.077 4.546-1.243c0.227-0.023 0.58-0.035 1.061-0.035 1.919 0 3.8 0.343 5.644 1.030 1.97 0.924 2.841 1.705 2.614 2.344-0.152 0.355-0.449 0.799-0.891 1.332s-0.727 0.882-0.852 1.048c-0.076 0.095-0.19 0.142-0.342 0.142-0.252 0-0.681-0.142-1.288-0.426-0.808-0.355-1.477-0.58-2.008-0.675-1.162-0.236-2.109-0.355-2.841-0.355-0.808 0-1.629 0.13-2.462 0.39-0.657 0.308-1.162 0.669-1.515 1.083s-0.53 0.847-0.53 1.296c0 0.663 0.353 1.243 1.061 1.74 0.782 0.521 1.622 0.958 2.519 1.314s1.9 0.723 3.012 1.101c1.212 0.426 2.191 0.811 2.936 1.154s1.358 0.799 1.837 1.367c0.505 0.45 0.928 1.089 1.269 1.918s0.511 1.622 0.511 2.379c0 1.326-0.379 2.474-1.136 3.444s-1.806 1.723-3.145 2.255c-1.339 0.533-2.879 0.799-4.622 0.799-1.945 0-3.934-0.296-5.966-0.888zM65.328 23.899c-2.034-0.592-3.466-1.243-4.3-1.953-0.151-0.142-0.227-0.32-0.227-0.533 0-0.236 0.101-0.533 0.303-0.888s0.543-0.852 1.023-1.491c0.176-0.237 0.391-0.355 0.644-0.355 0.075 0 0.189 0.024 0.341 0.071 1.792 0.852 3.277 1.391 4.451 1.616s2.418 0.337 3.731 0.337c1.288 0 2.304-0.207 3.049-0.621s1.118-0.964 1.118-1.651c0-0.568-0.265-1.172-0.796-1.811-0.329-0.402-0.853-0.74-1.573-1.012s-1.623-0.55-2.709-0.834c-0.126-0.023-0.454-0.107-0.984-0.249-2.046-0.568-3.636-1.248-4.773-2.042s-1.894-1.793-2.273-3.001c-0.279-0.828-0.416-1.585-0.416-2.272 0-1.208 0.34-2.314 1.022-3.321 0.682-1.006 1.667-1.84 2.956-2.503 1.287-0.662 2.802-1.077 4.546-1.243 0.227-0.023 0.58-0.035 1.060-0.035 1.919 0 3.801 0.343 5.644 1.030 1.97 0.924 2.841 1.705 2.614 2.344-0.151 0.355-0.449 0.799-0.89 1.332-0.442 0.533-0.727 0.882-0.853 1.048-0.076 0.095-0.189 0.142-0.341 0.142-0.253 0-0.682-0.142-1.288-0.426-0.808-0.355-1.478-0.58-2.008-0.675-1.162-0.236-2.109-0.355-2.841-0.355-0.808 0-1.628 0.13-2.462 0.39-0.657 0.308-1.162 0.669-1.516 1.083s-0.529 0.847-0.529 1.296c0 0.663 0.353 1.243 1.060 1.74 0.783 0.521 1.623 0.958 2.519 1.314s1.9 0.723 3.011 1.101c1.213 0.426 2.191 0.811 2.936 1.154s1.358 0.799 1.838 1.367c0.504 0.45 0.928 1.089 1.269 1.918s0.511 1.622 0.511 2.379c0 1.326-0.379 2.474-1.136 3.444s-1.806 1.723-3.145 2.255c-1.338 0.533-2.879 0.799-4.621 0.799-1.945 0-3.934-0.296-5.966-0.888zM85.368 24.698c-0.139-0.13-0.209-0.278-0.209-0.444v-23.579c0-0.189 0.076-0.349 0.228-0.479s0.316-0.195 0.493-0.195h3.94c0.176 0 0.335 0.065 0.474 0.195s0.208 0.29 0.208 0.479v23.579c0 0.166-0.063 0.314-0.189 0.444s-0.29 0.195-0.492 0.195h-3.94c-0.203 0-0.373-0.065-0.511-0.195z"></path>
<path  d="M4.922 31.945c-0.103 0-0.179-0.015-0.227-0.047s-0.080-0.072-0.095-0.123-0.022-0.107-0.022-0.167v-3.168c0-0.056 0.008-0.108 0.023-0.154s0.050-0.084 0.102-0.113 0.132-0.044 0.239-0.044c0.115 0 0.194 0.011 0.239 0.034s0.086 0.057 0.125 0.102l1.946 2.551v-2.376c0-0.056 0.008-0.108 0.023-0.154s0.049-0.084 0.099-0.113 0.129-0.044 0.236-0.044c0.107 0 0.184 0.015 0.233 0.047s0.080 0.072 0.093 0.123c0.014 0.051 0.020 0.107 0.020 0.167v3.149c0 0.058-0.008 0.113-0.025 0.163s-0.051 0.091-0.103 0.122c-0.052 0.031-0.133 0.047-0.242 0.047-0.085 0-0.153-0.008-0.202-0.023s-0.094-0.047-0.133-0.094l-1.972-2.548v2.335c0 0.058-0.007 0.113-0.022 0.163s-0.047 0.091-0.098 0.122c-0.051 0.031-0.13 0.047-0.239 0.047z"></path>
<path  d="M15.695 31.483c0.039 0.071 0.060 0.133 0.063 0.184s-0.014 0.098-0.050 0.137c-0.036 0.039-0.094 0.078-0.173 0.116-0.124 0.055-0.221 0.069-0.29 0.044s-0.133-0.096-0.191-0.21l-1.299-2.575-1.29 2.572c-0.060 0.113-0.125 0.182-0.194 0.206s-0.166 0.011-0.29-0.042c-0.080-0.035-0.137-0.072-0.173-0.113s-0.051-0.090-0.045-0.146c0.006-0.056 0.029-0.124 0.070-0.202l1.602-3.133c0.031-0.058 0.077-0.105 0.137-0.141s0.123-0.053 0.189-0.053c0.047 0 0.090 0.008 0.13 0.023s0.076 0.038 0.109 0.067c0.033 0.029 0.060 0.066 0.082 0.109l1.614 3.157zM12.718 30.956l0.28-0.563h1.524l0.277 0.563h-2.080z"></path>
<path  d="M19.843 31.948c-0.109 0-0.188-0.015-0.237-0.045s-0.081-0.071-0.093-0.123c-0.013-0.052-0.019-0.108-0.019-0.168v-3.155c0-0.060 0.007-0.115 0.020-0.165s0.045-0.090 0.095-0.12c0.050-0.030 0.13-0.045 0.24-0.045s0.19 0.015 0.239 0.045c0.049 0.030 0.079 0.070 0.092 0.12s0.019 0.107 0.019 0.171v3.155c0 0.060-0.007 0.115-0.020 0.165s-0.045 0.090-0.095 0.12c-0.050 0.030-0.13 0.045-0.24 0.045z"></path>
<path  d="M32.107 32c-0.177 0-0.336-0.020-0.478-0.060s-0.266-0.091-0.373-0.153-0.197-0.126-0.269-0.193c-0.073-0.067-0.127-0.126-0.162-0.179-0.052-0.067-0.086-0.126-0.101-0.176s-0.009-0.1 0.016-0.149c0.025-0.049 0.073-0.102 0.143-0.159s0.135-0.086 0.195-0.087c0.060-0.002 0.118 0.015 0.173 0.052s0.11 0.087 0.165 0.15c0.095 0.117 0.201 0.2 0.316 0.249s0.233 0.074 0.351 0.074c0.151 0 0.284-0.019 0.396-0.056s0.2-0.094 0.264-0.171c0.063-0.077 0.095-0.175 0.095-0.295 0-0.098-0.032-0.18-0.095-0.245s-0.148-0.12-0.253-0.165-0.223-0.087-0.352-0.126c-0.129-0.038-0.26-0.080-0.392-0.126-0.095-0.031-0.189-0.067-0.281-0.109s-0.179-0.090-0.259-0.145c-0.081-0.055-0.151-0.119-0.211-0.194s-0.107-0.161-0.141-0.26c-0.034-0.098-0.051-0.212-0.051-0.342 0-0.208 0.054-0.391 0.163-0.551s0.26-0.285 0.453-0.377c0.193-0.092 0.415-0.138 0.666-0.138 0.159 0 0.302 0.014 0.428 0.041s0.235 0.061 0.326 0.102c0.091 0.041 0.167 0.082 0.226 0.124s0.102 0.078 0.13 0.109c0.089 0.082 0.139 0.152 0.149 0.209s-0.025 0.134-0.105 0.228c-0.082 0.097-0.16 0.149-0.236 0.159s-0.161-0.019-0.256-0.085c-0.060-0.060-0.122-0.109-0.185-0.148s-0.133-0.067-0.208-0.085c-0.076-0.018-0.167-0.027-0.274-0.027-0.080 0-0.155 0.010-0.226 0.030s-0.132 0.049-0.183 0.087-0.092 0.085-0.121 0.139c-0.029 0.055-0.044 0.117-0.044 0.186 0 0.093 0.029 0.169 0.086 0.23s0.134 0.11 0.232 0.149c0.097 0.039 0.205 0.075 0.325 0.108s0.242 0.067 0.368 0.104c0.128 0.038 0.254 0.085 0.377 0.139s0.233 0.123 0.331 0.205c0.097 0.082 0.175 0.184 0.235 0.306s0.089 0.272 0.089 0.448c0 0.201-0.041 0.375-0.124 0.523s-0.194 0.27-0.334 0.365c-0.14 0.095-0.295 0.165-0.465 0.212s-0.342 0.070-0.517 0.070z"></path>
<path  d="M43.404 31.97c-0.282 0-0.52-0.041-0.717-0.122s-0.345-0.201-0.447-0.359c-0.102-0.159-0.153-0.352-0.153-0.58 0-0.12 0.027-0.24 0.080-0.36s0.133-0.239 0.237-0.358c0.105-0.119 0.232-0.236 0.382-0.349-0.052-0.104-0.099-0.207-0.138-0.309s-0.070-0.202-0.090-0.301c-0.020-0.098-0.031-0.193-0.031-0.284 0-0.2 0.046-0.371 0.137-0.513s0.223-0.249 0.396-0.324 0.381-0.112 0.623-0.112c0.208 0 0.387 0.035 0.537 0.105s0.267 0.169 0.35 0.298c0.083 0.128 0.124 0.281 0.124 0.458 0 0.097-0.027 0.192-0.082 0.287s-0.13 0.189-0.226 0.284c-0.096 0.095-0.206 0.19-0.331 0.286s-0.257 0.194-0.399 0.294c0.089 0.12 0.182 0.235 0.278 0.344s0.195 0.209 0.297 0.299c0.102 0.090 0.201 0.169 0.296 0.236 0.117-0.098 0.199-0.192 0.248-0.28s0.083-0.177 0.102-0.267c0.014-0.060 0.050-0.108 0.109-0.142s0.149-0.052 0.269-0.052c0.093 0 0.161 0.013 0.204 0.038s0.071 0.056 0.086 0.093c0.015 0.036 0.020 0.072 0.016 0.107-0.008 0.131-0.052 0.263-0.133 0.396s-0.191 0.267-0.331 0.402c0.043 0.013 0.081 0.024 0.115 0.033s0.073 0.016 0.118 0.020c0.045 0.005 0.1 0.007 0.166 0.007 0.113 0 0.194 0.024 0.245 0.072s0.076 0.126 0.076 0.234c0 0.135-0.023 0.226-0.070 0.273s-0.132 0.071-0.256 0.071c-0.109 0-0.218-0.008-0.329-0.023s-0.221-0.041-0.331-0.077c-0.11-0.035-0.221-0.082-0.334-0.138-0.109 0.064-0.224 0.119-0.345 0.165s-0.245 0.082-0.371 0.107-0.252 0.037-0.379 0.037zM43.419 31.371c0.095 0 0.186-0.011 0.274-0.031s0.161-0.049 0.221-0.083c-0.058-0.051-0.121-0.108-0.188-0.171s-0.135-0.131-0.204-0.205c-0.069-0.074-0.137-0.15-0.204-0.23s-0.132-0.161-0.194-0.245c-0.058 0.053-0.108 0.101-0.149 0.145s-0.074 0.084-0.099 0.122c-0.025 0.037-0.044 0.075-0.055 0.113s-0.017 0.078-0.017 0.12c0 0.097 0.025 0.18 0.074 0.25s0.12 0.123 0.211 0.16c0.091 0.036 0.201 0.055 0.329 0.055zM43.346 29.496c0.111-0.075 0.209-0.143 0.296-0.206s0.159-0.121 0.217-0.174 0.103-0.102 0.134-0.146c0.031-0.045 0.047-0.084 0.047-0.119 0-0.098-0.033-0.177-0.1-0.236s-0.157-0.089-0.269-0.089c-0.103 0-0.191 0.015-0.265 0.046s-0.13 0.075-0.169 0.131-0.058 0.125-0.058 0.205c0 0.053 0.006 0.108 0.019 0.165s0.031 0.12 0.055 0.189c0.024 0.068 0.056 0.146 0.095 0.234z"></path>
<path  d="M54.87 31.945c-0.103 0-0.179-0.016-0.228-0.049s-0.081-0.077-0.095-0.133c-0.014-0.056-0.020-0.116-0.020-0.182v-3.105c0-0.064 0.008-0.122 0.022-0.175s0.047-0.096 0.096-0.128c0.050-0.033 0.127-0.049 0.232-0.049h1.538c0.225 0 0.424 0.049 0.596 0.146s0.307 0.228 0.405 0.391c0.098 0.163 0.146 0.341 0.145 0.534 0.002 0.087-0.008 0.174-0.031 0.258s-0.056 0.164-0.1 0.238c-0.044 0.074-0.1 0.139-0.166 0.195 0.092 0.066 0.169 0.146 0.234 0.242s0.114 0.199 0.148 0.31c0.034 0.111 0.051 0.226 0.051 0.344-0.004 0.164-0.036 0.317-0.099 0.458s-0.149 0.264-0.261 0.369-0.242 0.187-0.389 0.246c-0.148 0.059-0.306 0.089-0.475 0.089h-1.602zM55.231 31.298h1.183c0.111 0 0.21-0.020 0.298-0.059s0.158-0.101 0.209-0.186 0.075-0.195 0.075-0.329c0-0.104-0.014-0.188-0.044-0.253s-0.069-0.115-0.118-0.15-0.104-0.061-0.163-0.075c-0.059-0.015-0.118-0.023-0.178-0.026s-0.114-0.004-0.164-0.004h-0.265c-0.103 0-0.178-0.022-0.223-0.067s-0.069-0.12-0.069-0.226c0-0.1 0.025-0.171 0.075-0.213s0.127-0.063 0.231-0.063h0.262c0.050 0 0.106-0.002 0.166-0.006s0.117-0.017 0.172-0.040c0.054-0.023 0.099-0.062 0.134-0.118s0.053-0.135 0.053-0.239c0-0.164-0.045-0.283-0.137-0.358s-0.246-0.112-0.466-0.112h-1.032v2.523z"></path>
<path  d="M62.004 31.945c-0.108 0-0.188-0.015-0.237-0.045s-0.081-0.071-0.093-0.123c-0.013-0.052-0.019-0.108-0.019-0.168v-3.155c0-0.058 0.008-0.112 0.022-0.161s0.047-0.089 0.096-0.12c0.050-0.031 0.129-0.046 0.237-0.046h1.247c0.176 0 0.346 0.027 0.508 0.081s0.307 0.134 0.435 0.242c0.129 0.108 0.23 0.242 0.305 0.403s0.112 0.35 0.112 0.567c0 0.14-0.022 0.281-0.069 0.421s-0.115 0.27-0.207 0.39c-0.093 0.119-0.209 0.221-0.348 0.303s-0.305 0.137-0.495 0.163h-1.139v0.919c0 0.060-0.007 0.115-0.020 0.165s-0.045 0.090-0.094 0.12c-0.050 0.030-0.13 0.045-0.24 0.045zM64.483 31.861c-0.112 0.075-0.204 0.102-0.275 0.083s-0.142-0.077-0.214-0.174l-0.979-1.389 0.786-0.101 0.778 1.107c0.052 0.073 0.085 0.135 0.097 0.186s0.004 0.098-0.028 0.142c-0.031 0.044-0.086 0.092-0.166 0.145zM62.359 30.043h0.984c0.070 0 0.139-0.012 0.207-0.037s0.129-0.063 0.182-0.115 0.096-0.117 0.13-0.195c0.033-0.078 0.050-0.172 0.050-0.282 0-0.131-0.026-0.243-0.080-0.336s-0.13-0.164-0.228-0.213-0.218-0.074-0.358-0.074h-0.886v1.252z"></path>
<path  d="M70.362 31.992c-0.279 0-0.541-0.050-0.785-0.149s-0.459-0.237-0.644-0.414-0.331-0.381-0.436-0.613c-0.105-0.232-0.157-0.481-0.157-0.746 0-0.273 0.051-0.529 0.153-0.767s0.243-0.449 0.424-0.629c0.18-0.18 0.39-0.321 0.629-0.423s0.494-0.153 0.766-0.153c0.281 0 0.542 0.050 0.786 0.149s0.457 0.238 0.641 0.416c0.183 0.178 0.326 0.385 0.431 0.622s0.156 0.492 0.156 0.765c0 0.266-0.051 0.516-0.153 0.75s-0.243 0.442-0.425 0.621c-0.181 0.18-0.39 0.32-0.626 0.421s-0.49 0.151-0.76 0.151zM70.33 31.328c0.178 0 0.346-0.033 0.502-0.098s0.293-0.157 0.41-0.273c0.118-0.117 0.21-0.253 0.275-0.409s0.099-0.323 0.099-0.502c0-0.176-0.034-0.342-0.1-0.497s-0.16-0.292-0.278-0.41c-0.118-0.118-0.254-0.211-0.409-0.277s-0.32-0.1-0.495-0.1c-0.176 0-0.341 0.033-0.497 0.1s-0.293 0.159-0.411 0.276-0.211 0.254-0.278 0.41c-0.067 0.156-0.1 0.323-0.1 0.501 0 0.175 0.034 0.34 0.102 0.496s0.16 0.291 0.278 0.409c0.118 0.117 0.254 0.209 0.407 0.276s0.319 0.1 0.495 0.1z"></path>
<path  d="M77.487 31.932c-0.079 0-0.142-0.014-0.188-0.041s-0.079-0.059-0.1-0.096c-0.022-0.036-0.036-0.067-0.044-0.090l-1.142-3.138c-0.038-0.118-0.044-0.208-0.017-0.268s0.107-0.11 0.239-0.15c0.088-0.027 0.159-0.040 0.213-0.037s0.1 0.023 0.137 0.061c0.037 0.038 0.069 0.098 0.097 0.178l0.841 2.387 0.749-2.365c0.011-0.035 0.028-0.071 0.049-0.109s0.055-0.071 0.102-0.097c0.046-0.026 0.111-0.040 0.192-0.040 0.094 0 0.163 0.015 0.212 0.044s0.082 0.061 0.102 0.097c0.020 0.036 0.034 0.067 0.043 0.094l0.754 2.389 0.842-2.395c0.029-0.082 0.061-0.143 0.097-0.183s0.083-0.063 0.141-0.068c0.058-0.005 0.132 0.006 0.219 0.036 0.090 0.029 0.153 0.061 0.191 0.096s0.058 0.078 0.058 0.13c0.001 0.052-0.013 0.119-0.040 0.201l-1.139 3.141c-0.008 0.024-0.022 0.053-0.044 0.089s-0.055 0.067-0.1 0.094c-0.046 0.027-0.109 0.041-0.191 0.041s-0.146-0.016-0.194-0.048c-0.047-0.032-0.082-0.068-0.105-0.108s-0.037-0.070-0.046-0.090l-0.792-2.403-0.793 2.4c-0.008 0.024-0.023 0.056-0.045 0.096s-0.057 0.076-0.103 0.107c-0.046 0.031-0.112 0.046-0.195 0.046z"></path>
<path  d="M86.378 32c-0.177 0-0.336-0.020-0.478-0.060s-0.266-0.091-0.373-0.153c-0.107-0.062-0.197-0.126-0.269-0.193s-0.127-0.126-0.162-0.179c-0.052-0.067-0.085-0.126-0.1-0.176s-0.009-0.1 0.016-0.149c0.025-0.049 0.073-0.102 0.143-0.159s0.135-0.086 0.195-0.087c0.061-0.002 0.118 0.015 0.174 0.052s0.11 0.087 0.165 0.15c0.095 0.117 0.201 0.2 0.316 0.249s0.233 0.074 0.351 0.074c0.151 0 0.284-0.019 0.397-0.056s0.201-0.094 0.263-0.171 0.094-0.175 0.094-0.295c0-0.098-0.031-0.18-0.094-0.245s-0.147-0.12-0.254-0.165c-0.106-0.046-0.224-0.087-0.353-0.126s-0.26-0.080-0.391-0.126c-0.096-0.031-0.189-0.067-0.281-0.109s-0.178-0.090-0.259-0.145c-0.081-0.055-0.151-0.119-0.212-0.194s-0.107-0.161-0.141-0.26c-0.034-0.098-0.051-0.212-0.051-0.342 0-0.208 0.055-0.391 0.163-0.551s0.26-0.285 0.453-0.377c0.194-0.092 0.415-0.138 0.665-0.138 0.159 0 0.302 0.014 0.428 0.041s0.235 0.061 0.326 0.102c0.091 0.041 0.166 0.082 0.226 0.124s0.103 0.078 0.129 0.109c0.090 0.082 0.139 0.152 0.148 0.209s-0.025 0.134-0.105 0.228c-0.082 0.097-0.16 0.149-0.236 0.159s-0.162-0.019-0.257-0.085c-0.061-0.060-0.122-0.109-0.185-0.148s-0.132-0.067-0.209-0.085c-0.076-0.018-0.167-0.027-0.273-0.027-0.080 0-0.155 0.010-0.226 0.030s-0.132 0.049-0.183 0.087-0.091 0.085-0.121 0.139c-0.029 0.055-0.043 0.117-0.043 0.186 0 0.093 0.028 0.169 0.086 0.23s0.135 0.11 0.231 0.149c0.097 0.039 0.206 0.075 0.325 0.108s0.242 0.067 0.368 0.104c0.128 0.038 0.254 0.085 0.377 0.139s0.234 0.123 0.331 0.205c0.097 0.082 0.175 0.184 0.234 0.306s0.089 0.272 0.089 0.448c0 0.201-0.041 0.375-0.124 0.523s-0.194 0.27-0.334 0.365c-0.139 0.095-0.294 0.165-0.465 0.212s-0.342 0.070-0.517 0.070z"></path>
<path  d="M24.585 31.948c-0.111 0-0.191-0.015-0.242-0.045s-0.083-0.071-0.096-0.122c-0.014-0.051-0.020-0.107-0.020-0.167v-3.155c0-0.062 0.006-0.118 0.019-0.168s0.044-0.090 0.093-0.12c0.050-0.030 0.13-0.045 0.24-0.045s0.19 0.015 0.239 0.045c0.049 0.030 0.080 0.070 0.093 0.12s0.020 0.106 0.020 0.168v2.898h1.774c0.058 0 0.111 0.005 0.157 0.015s0.084 0.036 0.112 0.078 0.042 0.108 0.042 0.2c0 0.089-0.014 0.155-0.042 0.198s-0.065 0.070-0.111 0.082c-0.046 0.012-0.098 0.018-0.156 0.018h-2.124z"></path>
</symbol>
<symbol id="language" viewBox="0 0 32 32">
<path d="M15.985 1.333c-8.096 0-14.652 6.571-14.652 14.667s6.556 14.667 14.652 14.667c8.111 0 14.681-6.571 14.681-14.667s-6.571-14.667-14.681-14.667zM26.149 10.133h-4.327c-0.459-1.817-1.139-3.57-2.024-5.221 2.675 0.921 4.93 2.775 6.351 5.221zM16 4.325c1.217 1.76 2.171 3.711 2.801 5.808h-5.603c0.631-2.097 1.584-4.048 2.801-5.808zM4.648 18.933c-0.235-0.939-0.381-1.921-0.381-2.933s0.147-1.995 0.381-2.933h4.957c-0.117 0.968-0.205 1.936-0.205 2.933s0.088 1.965 0.205 2.933h-4.957zM5.851 21.867h4.327c0.469 1.833 1.144 3.593 2.024 5.221-2.678-0.916-4.934-2.771-6.351-5.221zM10.177 10.133h-4.327c1.417-2.451 3.672-4.305 6.351-5.221-0.885 1.651-1.565 3.405-2.024 5.221zM16 27.675c-1.217-1.76-2.171-3.711-2.801-5.808h5.603c-0.631 2.097-1.584 4.048-2.801 5.808zM19.432 18.933h-6.864c-0.132-0.968-0.235-1.936-0.235-2.933s0.103-1.98 0.235-2.933h6.864c0.132 0.953 0.235 1.936 0.235 2.933s-0.103 1.965-0.235 2.933zM19.799 27.088c0.88-1.628 1.555-3.388 2.024-5.221h4.327c-1.421 2.447-3.675 4.3-6.351 5.221zM22.395 18.933c0.117-0.968 0.205-1.936 0.205-2.933s-0.088-1.965-0.205-2.933h4.957c0.235 0.939 0.381 1.921 0.381 2.933s-0.147 1.995-0.381 2.933h-4.957z"></path>
</symbol>
<symbol id="phone" viewBox="0 0 35 32">
<path stroke-linejoin="round" stroke-linecap="round" stroke-miterlimit="4" stroke-width="3.2" d="M15.479 8.32l-4.962-5.207c-0.572-0.6-1.621-0.597-2.285 0.008l-4.080 3.716c-1.214 1.105-1.562 2.747-0.859 4.063 4.197 7.9 11.205 14.28 19.889 18.107 1.446 0.639 3.25 0.323 4.464-0.783l4.118-3.751c0.667-0.607 0.669-1.565 0.003-2.085l-5.749-4.487c-0.601-0.469-1.536-0.408-2.138 0.141l-2 1.821c-0.102 0.098-0.237 0.162-0.384 0.183s-0.297-0.002-0.427-0.066c-3.27-1.712-5.983-4.181-7.861-7.156-0.070-0.119-0.096-0.256-0.072-0.389s0.094-0.256 0.202-0.35l1.995-1.815c0.604-0.552 0.67-1.405 0.148-1.953v0.001z"></path>
</symbol>
<symbol id="instagram" viewBox="0 0 32 32">
<path d="M9.953 1.421c1.564-0.072 2.063-0.088 6.047-0.088s4.483 0.017 6.045 0.088c1.563 0.071 2.629 0.32 3.563 0.681 0.977 0.369 1.864 0.947 2.597 1.693 0.747 0.732 1.323 1.617 1.691 2.596 0.363 0.933 0.611 2 0.683 3.56 0.072 1.567 0.088 2.065 0.088 6.048 0 3.984-0.017 4.483-0.088 6.047-0.071 1.56-0.32 2.627-0.683 3.56-0.368 0.979-0.945 1.866-1.691 2.599-0.733 0.747-1.62 1.323-2.597 1.691-0.933 0.363-2 0.611-3.56 0.683-1.565 0.072-2.064 0.088-6.048 0.088s-4.483-0.017-6.047-0.088c-1.56-0.071-2.627-0.32-3.56-0.683-0.979-0.368-1.866-0.945-2.599-1.691-0.746-0.733-1.324-1.619-1.692-2.597-0.361-0.933-0.609-2-0.681-3.56-0.072-1.567-0.088-2.065-0.088-6.048 0-3.984 0.017-4.483 0.088-6.045s0.32-2.629 0.681-3.563c0.369-0.979 0.947-1.865 1.693-2.597 0.732-0.746 1.618-1.323 2.596-1.692 0.933-0.361 2.001-0.609 3.561-0.681zM21.927 4.061c-1.547-0.071-2.011-0.085-5.927-0.085s-4.38 0.015-5.927 0.085c-1.431 0.065-2.207 0.304-2.724 0.505-0.684 0.267-1.173 0.583-1.687 1.096-0.487 0.473-0.861 1.050-1.096 1.687-0.201 0.517-0.44 1.293-0.505 2.724-0.071 1.547-0.085 2.011-0.085 5.927s0.015 4.38 0.085 5.927c0.065 1.431 0.304 2.207 0.505 2.724 0.235 0.636 0.609 1.213 1.096 1.687 0.473 0.487 1.051 0.861 1.687 1.096 0.517 0.201 1.293 0.44 2.724 0.505 1.547 0.071 2.009 0.085 5.927 0.085s4.38-0.015 5.927-0.085c1.431-0.065 2.207-0.304 2.724-0.505 0.684-0.267 1.173-0.583 1.687-1.096 0.487-0.473 0.861-1.051 1.096-1.687 0.201-0.517 0.44-1.293 0.505-2.724 0.071-1.547 0.085-2.011 0.085-5.927s-0.015-4.38-0.085-5.927c-0.065-1.431-0.304-2.207-0.505-2.724-0.267-0.684-0.583-1.173-1.096-1.687-0.473-0.487-1.050-0.861-1.687-1.096-0.517-0.201-1.293-0.44-2.724-0.505zM14.127 20.521c1.046 0.436 2.211 0.494 3.296 0.166s2.022-1.022 2.652-1.965c0.63-0.942 0.913-2.074 0.801-3.202s-0.612-2.181-1.415-2.981c-0.512-0.511-1.13-0.903-1.811-1.146s-1.408-0.333-2.128-0.262c-0.72 0.071-1.415 0.301-2.036 0.673s-1.151 0.877-1.553 1.478c-0.402 0.601-0.665 1.284-0.772 2s-0.052 1.446 0.157 2.138c0.21 0.692 0.571 1.329 1.056 1.866s1.084 0.958 1.752 1.235zM10.669 10.669c0.7-0.7 1.531-1.255 2.446-1.634s1.895-0.574 2.885-0.574c0.99 0 1.97 0.195 2.885 0.574s1.746 0.934 2.446 1.634c0.7 0.7 1.255 1.531 1.634 2.446s0.574 1.895 0.574 2.885-0.195 1.97-0.574 2.885c-0.379 0.915-0.934 1.746-1.634 2.446-1.414 1.414-3.331 2.208-5.331 2.208s-3.917-0.794-5.331-2.208c-1.414-1.414-2.208-3.331-2.208-5.331s0.794-3.917 2.208-5.331zM24.774 9.588c0.174-0.164 0.312-0.36 0.408-0.579s0.147-0.454 0.151-0.692-0.041-0.475-0.131-0.696c-0.090-0.221-0.223-0.422-0.391-0.59s-0.369-0.302-0.59-0.391c-0.221-0.090-0.458-0.134-0.696-0.131s-0.474 0.055-0.692 0.151c-0.218 0.096-0.415 0.235-0.579 0.408-0.318 0.337-0.492 0.785-0.486 1.249s0.194 0.907 0.522 1.235 0.771 0.515 1.234 0.522c0.464 0.007 0.912-0.167 1.249-0.486z"></path>
</symbol>
<symbol id="time" viewBox="0 0 32 32">
<path d="M16 0c-8.822 0-16 7.178-16 16s7.178 16 16 16c8.822 0 16-7.178 16-16s-7.178-16-16-16zM16 28.8c-7.058 0-12.8-5.742-12.8-12.8s5.742-12.8 12.8-12.8c7.058 0 12.8 5.742 12.8 12.8s-5.742 12.8-12.8 12.8z"></path>
<path d="M18.066 9.333h-3.399v7.462l5.597 4.538 2.403-1.949-4.601-3.731v-6.32z"></path>
</symbol>
<symbol id="map" viewBox="0 0 32 32">
<path d="M16 22.667l1.333-2.667v-6.856c2.295-0.596 4-2.667 4-5.144 0-2.941-2.392-5.333-5.333-5.333s-5.333 2.392-5.333 5.333c0 2.477 1.705 4.548 4 5.144v6.856l1.333 2.667zM13.333 8c0-1.471 1.196-2.667 2.667-2.667s2.667 1.196 2.667 2.667c0 1.471-1.196 2.667-2.667 2.667s-2.667-1.196-2.667-2.667z"></path>
<path d="M21.689 14.084l-0.711 2.571c3.455 0.955 5.688 2.791 5.688 4.679 0 2.523-4.38 5.333-10.667 5.333s-10.667-2.811-10.667-5.333c0-1.888 2.233-3.724 5.689-4.68l-0.711-2.571c-4.716 1.304-7.645 4.081-7.645 7.251 0 4.485 5.857 8 13.333 8s13.333-3.515 13.333-8c0-3.169-2.929-5.947-7.644-7.249z"></path>
</symbol>
<symbol id="hamburger" viewBox="0 0 32 32">
<path d="M2 6h28v6h-28zM2 14h28v6h-28zM2 22h28v6h-28z"></path>
</symbol>

<symbol id="arrow-right" viewBox="0 0 216 32">
<path fill="#fff" style="fill: var(--color1, #fff)" d="M213.813 17.414c0.781-0.781 0.781-2.047 0-2.828l-12.728-12.728c-0.781-0.781-2.048-0.781-2.829 0s-0.781 2.047 0 2.828l11.314 11.314-11.314 11.314c-0.781 0.781-0.781 2.047 0 2.828s2.048 0.781 2.829 0l12.728-12.728zM2.719 18h209.68v-4h-209.68v4z"></path>
</symbol>
<symbol id="arrow-left" viewBox="0 0 164 32">
<path fill="#fff" style="fill: var(--color1, #fff)" d="M2.586 17.414c-0.781-0.781-0.781-2.047 0-2.828l12.728-12.728c0.781-0.781 2.047-0.781 2.828 0s0.781 2.047 0 2.828l-11.314 11.314 11.314 11.314c0.781 0.781 0.781 2.047 0 2.828s-2.047 0.781-2.828 0l-12.728-12.728zM164 18h-160v-4h160v4z"></path>
</symbol>
<symbol id="arrow-right-black" viewBox="0 0 164 32">
<path fill="#140b38" style="fill: var(--color2, #140b38)" d="M161.414 17.414c0.781-0.781 0.781-2.047 0-2.828l-12.728-12.728c-0.781-0.781-2.048-0.781-2.828 0s-0.781 2.047 0 2.828l11.314 11.314-11.314 11.314c-0.781 0.781-0.781 2.047 0 2.828s2.047 0.781 2.828 0l12.728-12.728zM0 18h160v-4h-160v4z"></path>
</symbol>
<symbol id="arrow-left-black" viewBox="0 0 164 32">
<path fill="#140b38" style="fill: var(--color2, #140b38)" d="M2.586 17.414c-0.781-0.781-0.781-2.047 0-2.828l12.728-12.728c0.781-0.781 2.047-0.781 2.828 0s0.781 2.047 0 2.828l-11.314 11.314 11.314 11.314c0.781 0.781 0.781 2.047 0 2.828s-2.047 0.781-2.828 0l-12.728-12.728zM164 18h-160v-4h160v4z"></path>
</symbol>
<symbol id="star" viewBox="0 0 32 32">
<path fill="#f59e0b" style="fill: var(--color8, #f59e0b)" d="M29.263 12.239c-0.084-0.247-0.238-0.464-0.444-0.624s-0.454-0.257-0.714-0.277l-7.601-0.604-3.289-7.281c-0.105-0.235-0.275-0.434-0.491-0.574s-0.467-0.214-0.724-0.214c-0.257-0-0.508 0.074-0.724 0.214s-0.386 0.339-0.491 0.573l-3.289 7.283-7.601 0.604c-0.255 0.020-0.5 0.114-0.703 0.269s-0.358 0.366-0.445 0.607-0.103 0.502-0.046 0.752c0.057 0.25 0.185 0.478 0.369 0.656l5.617 5.476-1.987 8.603c-0.060 0.26-0.041 0.533 0.056 0.782s0.266 0.464 0.486 0.616c0.22 0.152 0.48 0.234 0.748 0.236s0.529-0.076 0.751-0.225l7.26-4.84 7.26 4.84c0.227 0.151 0.495 0.228 0.768 0.222s0.537-0.095 0.757-0.256c0.22-0.161 0.386-0.385 0.475-0.642s0.097-0.536 0.023-0.799l-2.439-8.533 6.048-5.443c0.396-0.357 0.541-0.915 0.371-1.42z"></path>
</symbol>
</defs>
</svg>
